<svg width="181" height="27" viewBox="0 0 181 27" fill="none" xmlns="http://www.w3.org/2000/svg">
<g clip-path="url(#clip0_1_11)">
<path d="M30.4086 21.2878L25.4437 26.6316C25.3363 26.7476 25.2063 26.8403 25.0616 26.9036C24.917 26.967 24.7609 26.9999 24.6031 27H1.06752C0.955268 26.9999 0.845469 26.967 0.751567 26.9053C0.657669 26.8435 0.583744 26.7556 0.538845 26.6524C0.493945 26.5491 0.48002 26.4349 0.498775 26.3238C0.517531 26.2127 0.568149 26.1095 0.644438 26.0269L5.60373 20.6831C5.71112 20.5671 5.84116 20.4744 5.98579 20.411C6.13039 20.3477 6.28648 20.3148 6.44428 20.3147H29.9799C30.0931 20.3123 30.2046 20.3437 30.3001 20.4048C30.3957 20.4659 30.4713 20.5539 30.517 20.6579C30.563 20.762 30.577 20.8773 30.5576 20.9894C30.5383 21.1014 30.4865 21.2053 30.4086 21.2878ZM25.4437 10.5244C25.3359 10.4088 25.2057 10.3166 25.0612 10.2532C24.9167 10.1899 24.7608 10.1568 24.6031 10.156H1.06752C0.955268 10.156 0.845469 10.1889 0.751567 10.2507C0.657669 10.3124 0.583744 10.4003 0.538845 10.5036C0.493945 10.6069 0.48002 10.721 0.498775 10.8321C0.517531 10.9432 0.568149 11.0464 0.644438 11.1291L5.60373 16.4756C5.71151 16.5912 5.84166 16.6834 5.98618 16.7468C6.1307 16.8101 6.28659 16.8432 6.44428 16.8441H29.9799C30.092 16.8435 30.2012 16.8101 30.2948 16.7482C30.3884 16.6862 30.4618 16.5983 30.5064 16.4952C30.5509 16.392 30.5646 16.278 30.5456 16.1672C30.5268 16.0564 30.4764 15.9534 30.4002 15.871L25.4437 10.5244ZM1.06752 6.6853H24.6031C24.7609 6.68516 24.917 6.65234 25.0616 6.58895C25.2063 6.52558 25.3363 6.43294 25.4437 6.31686L30.4086 0.973126C30.4865 0.890585 30.5383 0.786745 30.5576 0.67467C30.577 0.562594 30.563 0.44729 30.517 0.343267C30.4713 0.239244 30.3957 0.15115 30.3001 0.0900701C30.2046 0.0289899 30.0931 -0.00234758 29.9799 8.92906e-07H6.44428C6.28648 0.000167629 6.13039 0.0329685 5.98579 0.0963583C5.84116 0.159748 5.71112 0.252367 5.60373 0.368439L0.644438 5.71218C0.568149 5.79484 0.517531 5.89805 0.498775 6.00915C0.48002 6.12024 0.493945 6.2344 0.538845 6.33768C0.583744 6.44095 0.657669 6.52884 0.751567 6.59058C0.845469 6.65234 0.955268 6.68525 1.06752 6.6853Z" fill="url(#paint0_linear_1_11)"/>
<path d="M59.1024 11.4188H46.5109V7.25631H62.375V3.09381H46.4688C45.9253 3.09086 45.3868 3.19537 44.8835 3.40139C44.3803 3.60743 43.9222 3.91093 43.5361 4.29458C43.1498 4.67823 42.8424 5.13453 42.6317 5.63738C42.421 6.14025 42.3109 6.67986 42.3081 7.22537V11.4441C42.3103 11.9901 42.4196 12.5303 42.63 13.0338C42.8404 13.5374 43.1475 13.9943 43.5339 14.3785C43.9205 14.7628 44.3786 15.0668 44.8821 15.2732C45.3856 15.4796 45.925 15.5843 46.4688 15.5813H59.0772V19.7438H42.6079V23.9063H59.1024C59.646 23.9093 60.1845 23.8048 60.6877 23.5987C61.1909 23.3927 61.649 23.0892 62.0351 22.7055C62.4215 22.3219 62.7288 21.8656 62.9395 21.3627C63.1502 20.8599 63.2604 20.3203 63.2632 19.7748V15.556C63.2609 15.01 63.1517 14.4698 62.9412 13.9663C62.7308 13.4628 62.4237 13.0058 62.0373 12.6216C61.6507 12.2373 61.1926 11.9333 60.6891 11.7269C60.1856 11.5206 59.6462 11.4159 59.1024 11.4188Z" fill="white"/>
<path d="M83.4954 3.09377H70.8562C70.3118 3.08932 69.7719 3.19274 69.2673 3.39811C68.7629 3.60347 68.3037 3.90672 67.9162 4.29054C67.5284 4.67433 67.2202 5.13111 67.009 5.63472C66.7974 6.13832 66.687 6.67886 66.6842 7.22533V19.7747C66.687 20.3212 66.7974 20.8617 67.009 21.3653C67.2202 21.8689 67.5284 22.3257 67.9162 22.7095C68.3037 23.0933 68.7629 23.3966 69.2673 23.6019C69.7719 23.8073 70.3118 23.9107 70.8562 23.9063H83.4954C84.0389 23.9092 84.5775 23.8047 85.0807 23.5987C85.5839 23.3926 86.042 23.0891 86.4281 22.7055C86.8145 22.3218 87.1218 21.8655 87.3325 21.3627C87.5432 20.8598 87.6533 20.3202 87.6561 19.7747V7.22533C87.6533 6.67982 87.5432 6.14021 87.3325 5.63733C87.1218 5.13449 86.8145 4.67819 86.4281 4.29453C86.042 3.91088 85.5839 3.60738 85.0807 3.40134C84.5775 3.19532 84.0389 3.09081 83.4954 3.09377ZM83.4646 19.7438H70.887V7.25627H83.459L83.4646 19.7438Z" fill="white"/>
<path d="M127.765 3.09378H115.437C114.893 3.09083 114.354 3.19534 113.851 3.40136C113.348 3.6074 112.89 3.9109 112.504 4.29455C112.117 4.6782 111.81 5.1345 111.599 5.63735C111.389 6.14023 111.279 6.67983 111.276 7.22535V23.9063H115.479V17.0691H127.751V23.9063H131.954V7.22535C131.951 6.67744 131.84 6.13553 131.627 5.6308C131.415 5.1261 131.105 4.66856 130.716 4.28451C130.326 3.90049 129.865 3.59759 129.359 3.39323C128.852 3.18887 128.311 3.08712 127.765 3.09378ZM127.734 12.9066H115.462V7.25628H127.734V12.9066Z" fill="white"/>
<path d="M176.839 3.09381H164.511C163.968 3.09086 163.429 3.19537 162.926 3.40139C162.423 3.60743 161.965 3.91093 161.578 4.29458C161.192 4.67823 160.885 5.13453 160.674 5.63738C160.463 6.14025 160.353 6.67986 160.35 7.22537V23.9063H164.553V17.0691H176.797V23.9063H181V7.22537C180.997 6.67986 180.887 6.14025 180.676 5.63738C180.466 5.13453 180.158 4.67823 179.772 4.29458C179.386 3.91093 178.928 3.60743 178.425 3.40139C177.921 3.19537 177.383 3.09086 176.839 3.09381ZM176.797 12.9066H164.525V7.25631H176.797V12.9066Z" fill="white"/>
<path d="M152.421 19.7438H150.74L144.73 4.83754C144.524 4.32327 144.17 3.88252 143.712 3.57185C143.255 3.26116 142.716 3.09469 142.163 3.09379H138.434C138.072 3.09193 137.712 3.16176 137.377 3.29927C137.041 3.4368 136.736 3.6393 136.479 3.89524C136.221 4.1512 136.016 4.45554 135.876 4.79096C135.735 5.12635 135.662 5.48624 135.66 5.85004V23.9063H139.863V7.25629H141.544L147.551 22.1625C147.761 22.6758 148.118 23.1148 148.577 23.4234C149.036 23.732 149.577 23.8962 150.129 23.895H153.858C154.221 23.8969 154.58 23.8271 154.916 23.6896C155.251 23.5521 155.556 23.3495 155.814 23.0936C156.072 22.8376 156.276 22.5333 156.417 22.1979C156.557 21.8625 156.63 21.5026 156.632 21.1388V3.09379H152.421V19.7438Z" fill="white"/>
<path d="M95.5714 3.09375H91.3686V19.7747C91.3714 20.3214 91.4821 20.8622 91.6936 21.3659C91.9051 21.8697 92.2136 22.3266 92.6014 22.7105C92.9892 23.0943 93.449 23.3975 93.9536 23.6027C94.4585 23.8079 94.9987 23.9111 95.5434 23.9063H108.152V19.7438H95.5714V3.09375Z" fill="white"/>
</g>
<defs>
<linearGradient id="paint0_linear_1_11" x1="3.02882" y1="27.6441" x2="27.8124" y2="-0.190765" gradientUnits="userSpaceOnUse">
<stop offset="0.08" stop-color="#9945FF"/>
<stop offset="0.3" stop-color="#8752F3"/>
<stop offset="0.5" stop-color="#5497D5"/>
<stop offset="0.6" stop-color="#43B4CA"/>
<stop offset="0.72" stop-color="#28E0B9"/>
<stop offset="0.97" stop-color="#19FB9B"/>
</linearGradient>
<clipPath id="clip0_1_11">
<rect width="181" height="27" fill="white"/>
</clipPath>
</defs>
</svg>
